<svg width="192" height="192" viewBox="0 0 192 192" fill="none" xmlns="http://www.w3.org/2000/svg">
  <rect width="192" height="192" rx="24" fill="#EC4899"/>
  <circle cx="96" cy="96" r="80" fill="white"/>
  <!-- 猫の顔 -->
  <ellipse cx="96" cy="100" rx="45" ry="40" fill="#EC4899"/>
  <!-- 目 -->
  <ellipse cx="82" cy="85" rx="8" ry="10" fill="white"/>
  <ellipse cx="110" cy="85" rx="8" ry="10" fill="white"/>
  <ellipse cx="82" cy="85" rx="3" ry="6" fill="black"/>
  <ellipse cx="110" cy="85" rx="3" ry="6" fill="black"/>
  <!-- 鼻 -->
  <path d="M96 93 L90 98 L102 98 Z" fill="black"/>
  <!-- 口 -->
  <path d="M96 98 C90 102, 85 105, 82 108" stroke="black" stroke-width="2" fill="none"/>
  <path d="M96 98 C102 102, 107 105, 110 108" stroke="black" stroke-width="2" fill="none"/>
  <!-- 耳 -->
  <path d="M65 45 L50 20 L85 55 Z" fill="#DB2777"/>
  <path d="M127 45 L142 20 L107 55 Z" fill="#DB2777"/>
  <!-- ヒゲ -->
  <line x1="50" y1="90" x2="70" y2="88" stroke="black" stroke-width="2"/>
  <line x1="50" y1="100" x2="70" y2="100" stroke="black" stroke-width="2"/>
  <line x1="122" y1="88" x2="142" y2="90" stroke="black" stroke-width="2"/>
  <line x1="122" y1="100" x2="142" y2="100" stroke="black" stroke-width="2"/>
</svg>